<svg xmlns="http://www.w3.org/2000/svg" viewBox="0 0 64 64" fill="none" stroke="currentColor" stroke-width="2.5" stroke-linecap="round" stroke-linejoin="round"><path d="M8 24c0-4 4-8 8-8h32c4 0 8 4 8 8v8c0 12-6 24-12 24-4 0-6-4-8-8h-8c-2 4-4 8-8 8-6 0-12-12-12-24v-8z" fill="currentColor" opacity="0.08" /><path d="M8 24c0-4 4-8 8-8h32c4 0 8 4 8 8v8c0 12-6 24-12 24-4 0-6-4-8-8h-8c-2 4-4 8-8 8-6 0-12-12-12-24v-8z" /><line x1="22" y1="24" x2="22" y2="32" /><line x1="18" y1="28" x2="26" y2="28" /><circle cx="40" cy="26" r="2" fill="currentColor" /><circle cx="46" cy="30" r="2" fill="currentColor" /></svg>