<svg xmlns="http://www.w3.org/2000/svg" viewBox="0 0 64 64" fill="none" stroke="currentColor" stroke-width="2.5" stroke-linecap="round" stroke-linejoin="round"><path d="M16 10c0-3 2-5 5-5h26v44H16V10z" fill="currentColor" opacity="0.08" /><path d="M16 10c0-3 2-5 5-5h26v44H16V10z" /><path d="M47 49v6c0 2.5-2 4.5-4.5 4.5S38 57.5 38 55" /><path d="M16 49v6c0 2.5-2 4.5-4.5 4.5h0C9 59.5 7 57.5 7 55V14c0-3 2-5 5-5h4" /><line x1="24" y1="18" x2="40" y2="18" /><line x1="24" y1="26" x2="40" y2="26" /><line x1="24" y1="34" x2="34" y2="34" /></svg>